<svg xmlns="http://www.w3.org/2000/svg" xmlns:xlink="http://www.w3.org/1999/xlink" width="60" zoomAndPan="magnify" viewBox="0 0 45 44.999999" height="60" preserveAspectRatio="xMidYMid meet" version="1.0"><path fill="#2abfbf" d="M 9.078125 16.800781 C 9.339844 16.800781 9.59375 16.851562 9.835938 16.949219 C 10.074219 17.050781 10.289062 17.191406 10.472656 17.378906 C 10.660156 17.5625 10.800781 17.777344 10.902344 18.019531 C 11.003906 18.261719 11.050781 18.511719 11.050781 18.773438 L 11.050781 26.226562 C 11.050781 26.488281 11.003906 26.738281 10.902344 26.980469 C 10.800781 27.222656 10.660156 27.4375 10.472656 27.621094 C 10.289062 27.808594 10.074219 27.949219 9.835938 28.050781 C 9.59375 28.148438 9.339844 28.199219 9.078125 28.199219 C 8.816406 28.199219 8.566406 28.148438 8.324219 28.050781 C 8.082031 27.949219 7.867188 27.808594 7.683594 27.621094 C 7.5 27.4375 7.355469 27.222656 7.253906 26.980469 C 7.15625 26.738281 7.105469 26.488281 7.105469 26.226562 L 7.105469 18.773438 C 7.105469 18.511719 7.15625 18.261719 7.253906 18.019531 C 7.355469 17.777344 7.5 17.5625 7.683594 17.378906 C 7.867188 17.191406 8.082031 17.050781 8.324219 16.949219 C 8.566406 16.851562 8.816406 16.800781 9.078125 16.800781 Z M 9.078125 16.800781 " fill-opacity="0.45" fill-rule="nonzero"/><path fill="#2abfbf" d="M 16.183594 12.300781 C 16.445312 12.300781 16.699219 12.351562 16.941406 12.449219 C 17.179688 12.550781 17.394531 12.691406 17.578125 12.878906 C 17.765625 13.0625 17.90625 13.277344 18.007812 13.519531 C 18.109375 13.761719 18.15625 14.011719 18.15625 14.273438 L 18.15625 30.726562 C 18.15625 30.988281 18.109375 31.238281 18.007812 31.480469 C 17.90625 31.722656 17.765625 31.9375 17.578125 32.121094 C 17.394531 32.308594 17.179688 32.449219 16.941406 32.550781 C 16.699219 32.648438 16.445312 32.699219 16.183594 32.699219 C 15.921875 32.699219 15.671875 32.648438 15.429688 32.550781 C 15.1875 32.449219 14.972656 32.308594 14.789062 32.121094 C 14.605469 31.9375 14.460938 31.722656 14.359375 31.480469 C 14.261719 31.238281 14.210938 30.988281 14.210938 30.726562 L 14.210938 14.273438 C 14.210938 14.011719 14.261719 13.761719 14.359375 13.519531 C 14.460938 13.277344 14.605469 13.0625 14.789062 12.878906 C 14.972656 12.691406 15.1875 12.550781 15.429688 12.449219 C 15.671875 12.351562 15.921875 12.300781 16.183594 12.300781 Z M 16.183594 12.300781 " fill-opacity="0.65" fill-rule="nonzero"/><path fill="#2abfbf" d="M 23.289062 7.5 C 23.550781 7.5 23.804688 7.550781 24.042969 7.648438 C 24.285156 7.75 24.5 7.894531 24.683594 8.078125 C 24.871094 8.261719 25.011719 8.476562 25.113281 8.71875 C 25.214844 8.960938 25.261719 9.210938 25.261719 9.472656 L 25.261719 35.527344 C 25.261719 35.789062 25.214844 36.039062 25.113281 36.28125 C 25.011719 36.523438 24.871094 36.738281 24.683594 36.921875 C 24.5 37.105469 24.285156 37.25 24.042969 37.351562 C 23.804688 37.449219 23.550781 37.5 23.289062 37.5 C 23.027344 37.5 22.777344 37.449219 22.535156 37.351562 C 22.292969 37.25 22.078125 37.105469 21.894531 36.921875 C 21.707031 36.738281 21.566406 36.523438 21.464844 36.28125 C 21.367188 36.039062 21.316406 35.789062 21.316406 35.527344 L 21.316406 9.472656 C 21.316406 9.210938 21.367188 8.960938 21.464844 8.71875 C 21.566406 8.476562 21.707031 8.261719 21.894531 8.078125 C 22.078125 7.894531 22.292969 7.75 22.535156 7.648438 C 22.777344 7.550781 23.027344 7.5 23.289062 7.5 Z M 23.289062 7.5 " fill-opacity="1" fill-rule="nonzero"/><path fill="#2abfbf" d="M 30.394531 12.300781 C 30.65625 12.300781 30.910156 12.351562 31.148438 12.449219 C 31.390625 12.550781 31.605469 12.691406 31.789062 12.878906 C 31.976562 13.0625 32.117188 13.277344 32.21875 13.519531 C 32.316406 13.761719 32.367188 14.011719 32.367188 14.273438 L 32.367188 30.726562 C 32.367188 30.988281 32.316406 31.238281 32.21875 31.480469 C 32.117188 31.722656 31.976562 31.9375 31.789062 32.121094 C 31.605469 32.308594 31.390625 32.449219 31.148438 32.550781 C 30.910156 32.648438 30.65625 32.699219 30.394531 32.699219 C 30.132812 32.699219 29.882812 32.648438 29.640625 32.550781 C 29.398438 32.449219 29.183594 32.308594 29 32.121094 C 28.8125 31.9375 28.671875 31.722656 28.570312 31.480469 C 28.472656 31.238281 28.421875 30.988281 28.421875 30.726562 L 28.421875 14.273438 C 28.421875 14.011719 28.472656 13.761719 28.570312 13.519531 C 28.671875 13.277344 28.8125 13.0625 29 12.878906 C 29.183594 12.691406 29.398438 12.550781 29.640625 12.449219 C 29.882812 12.351562 30.132812 12.300781 30.394531 12.300781 Z M 30.394531 12.300781 " fill-opacity="0.65" fill-rule="nonzero"/><path fill="#2abfbf" d="M 37.5 16.800781 C 37.761719 16.800781 38.011719 16.851562 38.253906 16.949219 C 38.496094 17.050781 38.710938 17.191406 38.894531 17.378906 C 39.082031 17.5625 39.222656 17.777344 39.324219 18.019531 C 39.421875 18.261719 39.472656 18.511719 39.472656 18.773438 L 39.472656 26.226562 C 39.472656 26.488281 39.421875 26.738281 39.324219 26.980469 C 39.222656 27.222656 39.082031 27.4375 38.894531 27.621094 C 38.710938 27.808594 38.496094 27.949219 38.253906 28.050781 C 38.011719 28.148438 37.761719 28.199219 37.5 28.199219 C 37.238281 28.199219 36.988281 28.148438 36.746094 28.050781 C 36.503906 27.949219 36.289062 27.808594 36.105469 27.621094 C 35.917969 27.4375 35.777344 27.222656 35.675781 26.980469 C 35.578125 26.738281 35.527344 26.488281 35.527344 26.226562 L 35.527344 18.773438 C 35.527344 18.511719 35.578125 18.261719 35.675781 18.019531 C 35.777344 17.777344 35.917969 17.5625 36.105469 17.378906 C 36.289062 17.191406 36.503906 17.050781 36.746094 16.949219 C 36.988281 16.851562 37.238281 16.800781 37.5 16.800781 Z M 37.5 16.800781 " fill-opacity="0.45" fill-rule="nonzero"/></svg>
